<svg width="121" height="101" viewBox="0 0 121 101" fill="none" xmlns="http://www.w3.org/2000/svg">
<g clip-path="url(#clip0_77_774)">
<path d="M6.12499 3.625H114.875C117.981 3.625 120.5 5.72363 120.5 8.31249V92.6873C120.5 95.276 117.981 97.3748 114.875 97.3748H6.12499C3.01835 97.3748 0.5 95.2762 0.5 92.6873V8.31249C0.5 5.72363 3.01835 3.625 6.12499 3.625Z" fill="#CAD1D8"/>
<path d="M6.1255 11.4357C7.16078 11.4357 8.00003 10.7364 8.00003 9.87363C8.00003 9.0109 7.16078 8.31152 6.1255 8.31152C5.09023 8.31152 4.25098 9.0109 4.25098 9.87363C4.25098 10.7364 5.09023 11.4357 6.1255 11.4357Z" fill="#9BA7AF"/>
<path d="M13.6255 11.4357C14.6608 11.4357 15.5 10.7364 15.5 9.87363C15.5 9.0109 14.6608 8.31152 13.6255 8.31152C12.5902 8.31152 11.751 9.0109 11.751 9.87363C11.751 10.7364 12.5902 11.4357 13.6255 11.4357Z" fill="#9BA7AF"/>
<path d="M21.1255 11.4357C22.1608 11.4357 23 10.7364 23 9.87363C23 9.0109 22.1608 8.31152 21.1255 8.31152C20.0902 8.31152 19.251 9.0109 19.251 9.87363C19.251 10.7364 20.0902 11.4357 21.1255 11.4357Z" fill="#9BA7AF"/>
<path d="M6.125 16.125H114.875C115.91 16.125 116.75 16.8246 116.75 17.6875V92.6873C116.75 93.5502 115.91 94.2498 114.875 94.2498H6.125C5.08953 94.2498 4.25 93.5502 4.25 92.6873V17.6875C4.25 16.8246 5.08953 16.125 6.125 16.125Z" fill="white"/>
<path d="M28.625 8.3125H114.875C115.91 8.3125 116.75 9.01211 116.75 9.875C116.75 10.7379 115.91 11.4375 114.875 11.4375H28.625C27.5895 11.4375 26.75 10.7379 26.75 9.875C26.75 9.01211 27.5895 8.3125 28.625 8.3125Z" fill="#E2E5E7"/>
<path d="M24.8745 41.1242C30.0519 41.1242 34.249 37.6266 34.249 33.3121C34.249 28.9976 30.0519 25.5 24.8745 25.5C19.6971 25.5 15.5 28.9976 15.5 33.3121C15.5 37.6266 19.6971 41.1242 24.8745 41.1242Z" fill="#F19F35"/>
<path d="M60.5 41.1242C65.6774 41.1242 69.8745 37.6266 69.8745 33.3121C69.8745 28.9976 65.6774 25.5 60.5 25.5C55.3226 25.5 51.1255 28.9976 51.1255 33.3121C51.1255 37.6266 55.3226 41.1242 60.5 41.1242Z" fill="#F19F35"/>
<path d="M96.1255 41.1242C101.303 41.1242 105.5 37.6266 105.5 33.3121C105.5 28.9976 101.303 25.5 96.1255 25.5C90.9481 25.5 86.751 28.9976 86.751 33.3121C86.751 37.6266 90.9481 41.1242 96.1255 41.1242Z" fill="#F19F35"/>
<path d="M13.625 58.3125H36.125C37.1604 58.3125 37.9999 59.0121 37.9999 59.875C37.9999 60.7379 37.1604 61.4375 36.125 61.4375H13.625C12.5895 61.4375 11.75 60.7379 11.75 59.875C11.75 59.0121 12.5895 58.3125 13.625 58.3125Z" fill="#CAD1D8"/>
<path d="M19.2497 52.0625H30.4997C31.5352 52.0625 32.375 52.7621 32.375 53.625C32.375 54.4879 31.5354 55.1875 30.4997 55.1875H19.2497C18.2143 55.1875 17.3745 54.4879 17.3745 53.625C17.3747 52.7621 18.2143 52.0625 19.2497 52.0625Z" fill="#CAD1D8"/>
<path d="M49.2497 52.0625H71.7497C72.7852 52.0625 73.6247 52.7621 73.6247 53.625C73.6247 54.4879 72.7852 55.1875 71.7497 55.1875H49.2497C48.2143 55.1875 47.3745 54.4879 47.3745 53.625C47.375 52.7621 48.2143 52.0625 49.2497 52.0625Z" fill="#CAD1D8"/>
<path d="M51.1252 58.3125H69.8752C70.9107 58.3125 71.7502 59.0121 71.7502 59.875C71.7502 60.7379 70.9107 61.4375 69.8752 61.4375H51.1252C50.0898 61.4375 49.25 60.7379 49.25 59.875C49.25 59.0121 50.0895 58.3125 51.1252 58.3125Z" fill="#CAD1D8"/>
<path d="M15.5 64.5625H34.25C35.2854 64.5625 36.1252 65.2621 36.1252 66.125C36.1252 66.9879 35.2857 67.6875 34.25 67.6875H15.5C14.4645 67.6875 13.625 66.9879 13.625 66.125C13.625 65.2621 14.4645 64.5625 15.5 64.5625Z" fill="#CAD1D8"/>
<path d="M84.875 52.0625H107.375C108.41 52.0625 109.25 52.7621 109.25 53.625C109.25 54.4879 108.41 55.1875 107.375 55.1875H84.875C83.8395 55.1875 83 54.4879 83 53.625C83 52.7621 83.8395 52.0625 84.875 52.0625Z" fill="#CAD1D8"/>
<path d="M84.875 64.5625H107.375C108.41 64.5625 109.25 65.2621 109.25 66.125C109.25 66.9879 108.41 67.6875 107.375 67.6875H84.875C83.8395 67.6875 83 66.9879 83 66.125C83 65.2621 83.8395 64.5625 84.875 64.5625Z" fill="#CAD1D8"/>
<path d="M90.5 58.3125H101.75C102.785 58.3125 103.625 59.0121 103.625 59.875C103.625 60.7379 102.785 61.4375 101.75 61.4375H90.5C89.4645 61.4375 88.625 60.7379 88.625 59.875C88.625 59.0121 89.4645 58.3125 90.5 58.3125Z" fill="#CAD1D8"/>
<path d="M54.8752 64.5625H66.1252C67.1607 64.5625 68.0002 65.2621 68.0002 66.125C68.0002 66.9879 67.1607 67.6875 66.1252 67.6875H54.8752C53.8398 67.6875 53 66.9879 53 66.125C53 65.2621 53.8395 64.5625 54.8752 64.5625Z" fill="#CAD1D8"/>
<path d="M63.4059 38.0003C63.255 38.0003 63.1064 37.9681 62.9747 37.9065L60.4997 36.7815L58.0244 37.9222C57.7291 38.0856 57.345 38.0856 57.0494 37.9222C56.752 37.7114 56.6341 37.3735 56.7494 37.0628L57.2182 34.6566L55.212 32.9534C54.9265 32.7564 54.7962 32.4429 54.8745 32.1409C54.978 31.8538 55.2694 31.6413 55.6245 31.5941L58.3994 31.2503L59.6369 29.0628C59.8355 28.6831 60.3661 28.5095 60.8217 28.6749C61.0301 28.7505 61.1962 28.889 61.2872 29.0628L62.5247 31.2503L65.2997 31.5941C65.6547 31.6413 65.9461 31.8538 66.0497 32.1409C66.1631 32.4304 66.0766 32.7486 65.8247 32.9691L63.8184 34.6722L64.2497 37.0628C64.3132 37.3579 64.1761 37.6583 63.8934 37.844C63.753 37.9353 63.5833 37.9894 63.4059 38.0003Z" fill="white"/>
<path d="M99.0312 38.0003C98.8802 38.0003 98.7316 37.9681 98.5999 37.9065L96.1249 36.7815L93.6499 37.9222C93.3546 38.0856 92.9705 38.0856 92.6749 37.9222C92.3775 37.7114 92.2596 37.3735 92.3749 37.0628L92.8437 34.6566L90.8374 32.9534C90.552 32.7564 90.4217 32.4429 90.4999 32.1409C90.6035 31.8538 90.8949 31.6413 91.2499 31.5941L94.0249 31.2503L95.2624 29.0628C95.4609 28.6831 95.9916 28.5095 96.4472 28.6749C96.6556 28.7505 96.8217 28.889 96.9127 29.0628L98.1502 31.2503L100.925 31.5941C101.28 31.6413 101.572 31.8538 101.675 32.1409C101.789 32.4304 101.702 32.7486 101.45 32.9691L99.4439 34.6722L99.8752 37.0628C99.9387 37.3579 99.8016 37.6583 99.5189 37.844C99.3783 37.9353 99.2086 37.9894 99.0312 38.0003Z" fill="white"/>
<path d="M27.7812 38.0003C27.6302 38.0003 27.4816 37.9681 27.3499 37.9065L24.8749 36.7815L22.3999 37.9222C22.1046 38.0856 21.7205 38.0856 21.4249 37.9222C21.1275 37.7114 21.0096 37.3735 21.1249 37.0628L21.5937 34.6566L19.5874 32.9534C19.302 32.7564 19.1717 32.4429 19.2499 32.1409C19.3535 31.8538 19.6449 31.6413 19.9999 31.5941L22.7749 31.2503L24.0124 29.0628C24.2109 28.6831 24.7416 28.5095 25.1972 28.6749C25.4056 28.7505 25.5717 28.889 25.6624 29.0628L26.8999 31.2503L29.6749 31.5941C30.03 31.6413 30.3213 31.8538 30.4249 32.1409C30.5384 32.4304 30.4519 32.7486 30.1999 32.9691L28.1937 34.6722L28.6249 37.0628C28.6884 37.3579 28.5513 37.6583 28.2687 37.844C28.1283 37.9353 27.9586 37.9894 27.7812 38.0003Z" fill="white"/>
<path d="M47.3752 78.625H73.6252C76.7316 78.625 79.2502 80.7236 79.2502 83.3125C79.2502 85.9012 76.7318 88 73.6252 88H47.3752C44.2688 88 41.75 85.9014 41.75 83.3125C41.75 80.7236 44.2684 78.625 47.3752 78.625Z" fill="#E2E5E7"/>
<path d="M47.3752 77.0625H73.6252C76.7316 77.0625 79.2502 79.1611 79.2502 81.75C79.2502 84.3387 76.7318 86.4375 73.6252 86.4375H47.3752C44.2688 86.4375 41.75 84.3389 41.75 81.75C41.75 79.1613 44.2684 77.0625 47.3752 77.0625Z" fill="#3CB54A"/>
<path d="M60.5 83.3117C61.5353 83.3117 62.3745 82.6123 62.3745 81.7496C62.3745 80.8869 61.5353 80.1875 60.5 80.1875C59.4647 80.1875 58.6255 80.8869 58.6255 81.7496C58.6255 82.6123 59.4647 83.3117 60.5 83.3117Z" fill="#0E9347"/>
<path d="M68 83.3117C69.0353 83.3117 69.8745 82.6123 69.8745 81.7496C69.8745 80.8869 69.0353 80.1875 68 80.1875C66.9647 80.1875 66.1255 80.8869 66.1255 81.7496C66.1255 82.6123 66.9647 83.3117 68 83.3117Z" fill="#0E9347"/>
<path d="M53 83.3117C54.0353 83.3117 54.8745 82.6123 54.8745 81.7496C54.8745 80.8869 54.0353 80.1875 53 80.1875C51.9647 80.1875 51.1255 80.8869 51.1255 81.7496C51.1255 82.6123 51.9647 83.3117 53 83.3117Z" fill="#0E9347"/>
<path d="M19.2497 44.25H30.4997C31.5352 44.25 32.375 44.9496 32.375 45.8127C32.375 46.6756 31.5354 47.3752 30.4997 47.3752H19.2497C18.2143 47.3752 17.3745 46.6756 17.3745 45.8127C17.3747 44.9496 18.2143 44.25 19.2497 44.25Z" fill="#595A66"/>
<path d="M54.8747 44.25H66.1247C67.1602 44.25 67.9997 44.9496 67.9997 45.8127C67.9997 46.6756 67.1602 47.3752 66.1247 47.3752H54.8747C53.8393 47.3752 52.9995 46.6756 52.9995 45.8127C52.9995 44.9496 53.839 44.25 54.8747 44.25Z" fill="#595A66"/>
<path d="M90.4995 44.25H101.749C102.785 44.25 103.624 44.9496 103.624 45.8127C103.624 46.6756 102.785 47.3752 101.749 47.3752H90.4995C89.464 47.3752 88.6245 46.6756 88.6245 45.8127C88.6245 44.9496 89.464 44.25 90.4995 44.25Z" fill="#595A66"/>
</g>
<defs>
<clipPath id="clip0_77_774">
<rect width="120" height="100" fill="white" transform="translate(0.5 0.5)"/>
</clipPath>
</defs>
</svg>
