<svg width="121" height="101" viewBox="0 0 121 101" fill="none" xmlns="http://www.w3.org/2000/svg">
<path d="M6.125 0.5H114.875C117.981 0.5 120.5 2.73854 120.5 5.5V95.5C120.5 98.2612 117.982 100.5 114.875 100.5H6.125C3.01836 100.5 0.5 98.2615 0.5 95.5V5.5C0.5 2.73854 3.01836 0.5 6.125 0.5Z" fill="#CAD1D8"/>
<path d="M6.12453 8.83738C7.15981 8.83738 7.99906 8.09138 7.99906 7.17113C7.99906 6.25089 7.15981 5.50488 6.12453 5.50488C5.08926 5.50488 4.25 6.25089 4.25 7.17113C4.25 8.09138 5.08926 8.83738 6.12453 8.83738Z" fill="#9BA7AF"/>
<path d="M13.6245 8.83738C14.6598 8.83738 15.4991 8.09138 15.4991 7.17113C15.4991 6.25089 14.6598 5.50488 13.6245 5.50488C12.5893 5.50488 11.75 6.25089 11.75 7.17113C11.75 8.09138 12.5893 8.83738 13.6245 8.83738Z" fill="#9BA7AF"/>
<path d="M21.1245 8.83738C22.1598 8.83738 22.9991 8.09138 22.9991 7.17113C22.9991 6.25089 22.1598 5.50488 21.1245 5.50488C20.0893 5.50488 19.25 6.25089 19.25 7.17113C19.25 8.09138 20.0893 8.83738 21.1245 8.83738Z" fill="#9BA7AF"/>
<path d="M6.125 13.8301H114.875C115.91 13.8301 116.75 14.5763 116.75 15.4967V95.4967C116.75 96.4172 115.91 97.1634 114.875 97.1634H6.125C5.08953 97.1634 4.25 96.4172 4.25 95.4967V15.4967C4.25 14.5763 5.08953 13.8301 6.125 13.8301Z" fill="white"/>
<path d="M24.875 20.5018C24.875 21.4223 24.0355 22.1685 23 22.1685H13.625C12.5895 22.1685 11.75 21.4223 11.75 20.5018C11.75 19.5814 12.5895 18.835 13.625 18.835H23C24.0355 18.8352 24.875 19.5814 24.875 20.5018Z" fill="#595A66"/>
<path d="M109.25 20.5018C109.25 21.4223 108.41 22.1685 107.375 22.1685H99.875C98.8395 22.1685 98 21.4223 98 20.5018C98 19.5814 98.8395 18.835 99.875 18.835H107.375C108.41 18.8352 109.25 19.5814 109.25 20.5018Z" fill="#595A66"/>
<path d="M94.25 20.5018C94.25 21.4223 93.4105 22.1685 92.375 22.1685H84.875C83.8395 22.1685 83 21.4223 83 20.5018C83 19.5814 83.8395 18.835 84.875 18.835H92.375C93.4105 18.8352 94.25 19.5814 94.25 20.5018Z" fill="#595A66"/>
<path d="M79.25 20.5018C79.25 21.4223 78.4105 22.1685 77.375 22.1685H69.875C68.8395 22.1685 68 21.4223 68 20.5018C68 19.5814 68.8395 18.835 69.875 18.835H77.375C78.4105 18.8352 79.25 19.5814 79.25 20.5018Z" fill="#595A66"/>
<path d="M13.625 40.502H43.625C44.6605 40.502 45.5 41.2482 45.5 42.1688C45.5 43.0892 44.6605 43.8355 43.625 43.8355H13.625C12.5895 43.8355 11.75 43.0892 11.75 42.1688C11.75 41.2482 12.5895 40.502 13.625 40.502Z" fill="#CAD1D8"/>
<path d="M13.625 47.167H39.875C40.9105 47.167 41.75 47.9132 41.75 48.8339C41.75 49.7543 40.9105 50.5007 39.875 50.5007H13.625C12.5895 50.5007 11.75 49.7545 11.75 48.8339C11.75 47.9132 12.5895 47.167 13.625 47.167Z" fill="#CAD1D8"/>
<path d="M13.625 53.832H34.25C35.2855 53.832 36.1252 54.5783 36.1252 55.4987C36.1252 56.4191 35.2857 57.1654 34.25 57.1654H13.625C12.5895 57.1654 11.75 56.4191 11.75 55.4987C11.75 54.5783 12.5895 53.832 13.625 53.832Z" fill="#CAD1D8"/>
<path d="M28.625 5.50488H114.875C115.91 5.50488 116.75 6.25113 116.75 7.17155C116.75 8.09197 115.91 8.83822 114.875 8.83822H28.625C27.5895 8.83822 26.75 8.09197 26.75 7.17155C26.75 6.25113 27.5895 5.50488 28.625 5.50488Z" fill="#E2E5E7"/>
<path d="M17.375 78.832H43.625C46.7314 78.832 49.25 81.0706 49.25 83.832C49.25 86.5933 46.7316 88.832 43.625 88.832H17.375C14.2686 88.832 11.75 86.5935 11.75 83.832C11.75 81.0708 14.2684 78.832 17.375 78.832Z" fill="#E2E5E7"/>
<path d="M17.375 77.1719H43.625C46.7314 77.1719 49.25 79.4104 49.25 82.1719C49.25 84.9331 46.7316 87.1719 43.625 87.1719H17.375C14.2686 87.1719 11.75 84.9333 11.75 82.1719C11.75 79.4104 14.2684 77.1719 17.375 77.1719Z" fill="#3CB54A"/>
<path d="M30.4995 83.8374C31.5348 83.8374 32.3741 83.0914 32.3741 82.1711C32.3741 81.2509 31.5348 80.5049 30.4995 80.5049C29.4643 80.5049 28.625 81.2509 28.625 82.1711C28.625 83.0914 29.4643 83.8374 30.4995 83.8374Z" fill="#0E9347"/>
<path d="M37.9995 83.8374C39.0348 83.8374 39.8741 83.0914 39.8741 82.1711C39.8741 81.2509 39.0348 80.5049 37.9995 80.5049C36.9643 80.5049 36.125 81.2509 36.125 82.1711C36.125 83.0914 36.9643 83.8374 37.9995 83.8374Z" fill="#0E9347"/>
<path d="M22.9995 83.8374C24.0348 83.8374 24.8741 83.0914 24.8741 82.1711C24.8741 81.2509 24.0348 80.5049 22.9995 80.5049C21.9643 80.5049 21.125 81.2509 21.125 82.1711C21.125 83.0914 21.9643 83.8374 22.9995 83.8374Z" fill="#0E9347"/>
<path d="M73.625 28.832H99.875C102.981 28.832 105.5 31.0706 105.5 33.832V87.1654C105.5 89.9266 102.982 92.1654 99.875 92.1654H73.625C70.5186 92.1654 68 89.9268 68 87.1654V33.832C68 31.0706 70.5184 28.832 73.625 28.832Z" fill="#595A66"/>
<path d="M101.75 38.8301H71.75V82.1624H101.75V38.8301Z" fill="#ABE1FA"/>
<path d="M92.375 33.8319C92.375 34.7523 91.5355 35.4988 90.5 35.4988H83C81.9645 35.4988 81.125 34.7525 81.125 33.8319C81.125 32.9115 81.9645 32.165 83 32.165H90.5C91.5355 32.1655 92.375 32.9115 92.375 33.8319Z" fill="#6F707E"/>
<path d="M86.7488 90.5025C88.8192 90.5025 90.4977 89.0106 90.4977 87.1702C90.4977 85.3298 88.8192 83.8379 86.7488 83.8379C84.6784 83.8379 83 85.3298 83 87.1702C83 89.0106 84.6784 90.5025 86.7488 90.5025Z" fill="#6F707E"/>
<path d="M86.7505 62.161C89.8573 62.161 92.3759 59.9222 92.3759 57.1606C92.3759 54.3989 89.8573 52.1602 86.7505 52.1602C83.6436 52.1602 81.125 54.3989 81.125 57.1606C81.125 59.9222 83.6436 62.161 86.7505 62.161Z" fill="white"/>
<path d="M71.75 82.1632H96.125L84.4062 70.2632C83.7273 69.5682 82.543 69.4943 81.7611 70.0978C81.6948 70.1491 81.6324 70.2043 81.575 70.2632L71.75 78.8299V82.1632Z" fill="white"/>
<path d="M101.75 70.4996L97.4562 66.6829C96.7248 66.0367 95.544 66.0367 94.8125 66.6829L77.375 82.1663H101.75V70.4996Z" fill="white"/>
<path d="M94.6416 76.8448C93.5121 75.7098 91.6632 75.3946 90.1416 76.0781L96.1228 82.1614H99.8728L94.6416 76.8448Z" fill="#E2E5E7"/>
</svg>
