<svg width="121" height="101" viewBox="0 0 121 101" fill="none" xmlns="http://www.w3.org/2000/svg">
<path d="M6.125 0.5H114.875C117.981 0.5 120.5 2.73854 120.5 5.5V95.5C120.5 98.2612 117.982 100.5 114.875 100.5H6.125C3.01836 100.5 0.5 98.2615 0.5 95.5V5.5C0.5 2.73854 3.01836 0.5 6.125 0.5Z" fill="#CAD1D8"/>
<path d="M6.125 13.833H114.875C115.91 13.833 116.75 14.5793 116.75 15.4997V95.4997C116.75 96.4201 115.91 97.1663 114.875 97.1663H6.125C5.08953 97.1663 4.25 96.4201 4.25 95.4997V15.4997C4.25 14.5793 5.08953 13.833 6.125 13.833Z" fill="white"/>
<path d="M15.5 30.5H105.5C107.571 30.5 109.25 31.9923 109.25 33.8333V80.5C109.25 82.341 107.571 83.8333 105.5 83.8333H15.5C13.4288 83.8333 11.75 82.341 11.75 80.5V33.8333C11.75 31.9923 13.4288 30.5 15.5 30.5Z" fill="#ABE1FA"/>
<path d="M34.249 50.5003C38.3912 50.5003 41.749 47.5156 41.749 43.8337C41.749 40.1518 38.3912 37.167 34.249 37.167C30.1069 37.167 26.749 40.1518 26.749 43.8337C26.749 47.5156 30.1069 50.5003 34.249 50.5003Z" fill="#F19F35"/>
<path d="M109.25 77.1663L81.8937 52.8497C80.4301 51.5472 78.0559 51.5461 76.5905 52.847C76.5896 52.8478 76.5887 52.8486 76.5875 52.8497L41.75 83.833H105.5C107.571 83.833 109.25 82.3407 109.25 80.4997V77.1663Z" fill="#595A66"/>
<path d="M94.2496 67.1668C93.2141 68.0818 93.2092 69.5698 94.2383 70.4902C94.2421 70.4935 94.2458 70.4968 94.2496 70.5002L96.4433 72.4502C99.8404 75.4691 101.749 79.5637 101.75 83.8335H105.5C107.571 83.8335 109.25 82.3412 109.25 80.5002V77.1668L97.9996 67.1668C96.9702 66.2464 95.2963 66.2421 94.2608 67.1568C94.2571 67.1602 94.2533 67.1635 94.2496 67.1668Z" fill="#35363E"/>
<path d="M38.9187 60.0334L12.875 82.8667C13.5734 83.4825 14.5161 83.8296 15.5 83.8334H68L44.5812 60.0334C43.223 58.6434 40.8547 58.4954 39.2909 59.7023C39.1583 59.8048 39.0341 59.9154 38.9187 60.0334Z" fill="#595A66"/>
<path d="M65.0371 73.2002C62.778 70.93 59.0805 70.3 56.0371 71.6671L67.9996 83.8335H75.4996L65.0371 73.2002Z" fill="#35363E"/>
<path d="M78.3734 57.6522C79.1058 58.3032 79.1058 59.3582 78.3734 60.0093L73.0702 64.7232C72.3378 65.3743 71.1506 65.3743 70.4185 64.7232C69.686 64.0722 69.686 63.0172 70.4185 62.3661L75.7217 57.6522C76.4538 57.0014 77.6412 57.0014 78.3734 57.6522Z" fill="#6F707E"/>
<path d="M41.2103 64.62C41.9427 65.271 41.9427 66.3262 41.2103 66.977L35.9071 71.691C35.1747 72.342 33.9878 72.342 33.2554 71.691C32.5229 71.04 32.5229 69.9848 33.2554 69.3339L38.5586 64.62C39.2908 63.9691 40.4779 63.9691 41.2103 64.62Z" fill="#6F707E"/>
<path d="M60.4995 92.1665C61.5348 92.1665 62.3741 91.4205 62.3741 90.5002C62.3741 89.58 61.5348 88.834 60.4995 88.834C59.4643 88.834 58.625 89.58 58.625 90.5002C58.625 91.4205 59.4643 92.1665 60.4995 92.1665Z" fill="#CAD1D8"/>
<path d="M52.9995 92.1665C54.0348 92.1665 54.8741 91.4205 54.8741 90.5002C54.8741 89.58 54.0348 88.834 52.9995 88.834C51.9643 88.834 51.125 89.58 51.125 90.5002C51.125 91.4205 51.9643 92.1665 52.9995 92.1665Z" fill="#CAD1D8"/>
<path d="M67.9995 92.1665C69.0348 92.1665 69.8741 91.4205 69.8741 90.5002C69.8741 89.58 69.0348 88.834 67.9995 88.834C66.9643 88.834 66.125 89.58 66.125 90.5002C66.125 91.4205 66.9643 92.1665 67.9995 92.1665Z" fill="#CAD1D8"/>
<path d="M6.12551 8.83152C7.16078 8.83152 8.00004 8.08552 8.00004 7.16527C8.00004 6.24503 7.16078 5.49902 6.12551 5.49902C5.09023 5.49902 4.25098 6.24503 4.25098 7.16527C4.25098 8.08552 5.09023 8.83152 6.12551 8.83152Z" fill="#9BA7AF"/>
<path d="M13.6255 8.83152C14.6608 8.83152 15.5 8.08552 15.5 7.16527C15.5 6.24503 14.6608 5.49902 13.6255 5.49902C12.5902 5.49902 11.751 6.24503 11.751 7.16527C11.751 8.08552 12.5902 8.83152 13.6255 8.83152Z" fill="#9BA7AF"/>
<path d="M21.1255 8.83152C22.1608 8.83152 23 8.08552 23 7.16527C23 6.24503 22.1608 5.49902 21.1255 5.49902C20.0902 5.49902 19.251 6.24503 19.251 7.16527C19.251 8.08552 20.0902 8.83152 21.1255 8.83152Z" fill="#9BA7AF"/>
<path d="M24.875 20.4999C24.875 21.4203 24.0355 22.1665 23 22.1665H13.625C12.5895 22.1665 11.75 21.4203 11.75 20.4999C11.75 19.5795 12.5895 18.833 13.625 18.833H23C24.0355 18.8332 24.875 19.5795 24.875 20.4999Z" fill="#595A66"/>
<path d="M109.25 20.4999C109.25 21.4203 108.41 22.1665 107.375 22.1665H99.875C98.8395 22.1665 98 21.4203 98 20.4999C98 19.5795 98.8395 18.833 99.875 18.833H107.375C108.41 18.8332 109.25 19.5795 109.25 20.4999Z" fill="#595A66"/>
<path d="M94.25 20.4999C94.25 21.4203 93.4105 22.1665 92.375 22.1665H84.875C83.8395 22.1665 83 21.4203 83 20.4999C83 19.5795 83.8395 18.833 84.875 18.833H92.375C93.4105 18.8332 94.25 19.5795 94.25 20.4999Z" fill="#595A66"/>
<path d="M79.25 20.4999C79.25 21.4203 78.4105 22.1665 77.375 22.1665H69.875C68.8395 22.1665 68 21.4203 68 20.4999C68 19.5795 68.8395 18.833 69.875 18.833H77.375C78.4105 18.8332 79.25 19.5795 79.25 20.4999Z" fill="#595A66"/>
<path d="M28.625 5.5H114.875C115.91 5.5 116.75 6.24625 116.75 7.16667C116.75 8.08708 115.91 8.83333 114.875 8.83333H28.625C27.5895 8.83333 26.75 8.08708 26.75 7.16667C26.75 6.24625 27.5895 5.5 28.625 5.5Z" fill="#E2E5E7"/>
</svg>
